 http://images.allocine.fr/r_760_x/medias/nmedia/18/77/98/77/19657487.jpg

Date de sortie cinéma : 13 avril 2011
Film disponible en DVD le : 5 octobre 2011
Film disponible en Blu-ray le : 5 octobre 2011

Réalisé par Wes Craven
Avec Neve Campbell, David Arquette, Courteney Cox

Interdit aux moins de 12 ans
Long-métrage américain . Genre : Epouvante-horreur , Thriller
Durée : 01h50min Année de production : 2011
Distributeur : SND 

10 ans se sont écoulés depuis les terribles meurtres commis par Ghostface. Sidney Prescott est parvenue à tourner la page mais c’est tout de même avec appréhension qu’elle retourne à Woodsboro pour le lancement de son premier roman.
Ses retrouvailles avec sa cousine Jill ainsi qu’avec le duo de choc Dewey et Gale seront de courtes durées : Ghostface est de retour mais cette fois-ci les règles vont changer.


Scream 4 TRUEFRENCH PPV REPACK 1CD MD XViD-CSs.avi
Format                           : AVI
Format/Info                      : Audio Video Interleave
File size                        : 723 MiB
Duration                         : 1h 50mn
Overall bit rate                 : 913 Kbps
Writing application              : Lavf52.81.0

Video
ID                               : 0
Format                           : MPEG-4 Visual
Format profile                   : Simple@L3
Format settings, BVOP            : No
Format settings, QPel            : No
Format settings, GMC             : No warppoints
Format settings, Matrix          : Default (H.263)
Codec ID                         : XVID
Codec ID/Hint                    : XviD
Duration                         : 1h 50mn
Bit rate                         : 779 Kbps
Width                            : 720 pixels
Height                           : 544 pixels

-------------Display aspect ratio   ===>         : 4:3--------------------------


Frame rate                       : 29.970 fps
Color space                      : YUV
Chroma subsampling               : 4:2:0
Bit depth                        : 8 bits
Scan type                        : Progressive
Compression mode                 : Lossy
Bits/(Pixel*Frame)               : 0.066
Stream size                      : 617 MiB (85%)
Writing library                  : XviD 1.2.1 (UTC 2008-12-04)

Audio
ID                               : 1
Format                           : MPEG Audio
Format version                   : Version 1
Format profile                   : Layer 3
Mode                             : Joint stereo
Mode extension                   : MS Stereo
Codec ID                         : 55
Codec ID/Hint                    : MP3
Duration                         : 1h 43mn
Bit rate mode                    : Constant
Bit rate                         : 128 Kbps
Channel(s)                       : 2 channels
Sampling rate                    : 48.0 KHz
Compression mode                 : Lossy
Stream size                      : 95.1 MiB (13%)
Alignment                        : Aligned on interleaves
Interleave, duration             : 26 ms (0.77 video frame)
Writing library                  : LAME3.98.4


!!!!!! Donc seulement pour les impatients le DVD sort au début octobre !!!!!!

Qualité .. très regardable

format 4/3

son MD (micro)